<svg data-v-423bf9ae="" xmlns="http://www.w3.org/2000/svg" viewBox="0 0 246.05549414878905 60" class="font"><!----><!----><defs data-v-423bf9ae=""><linearGradient data-v-423bf9ae="" gradientTransform="rotate(25)" id="a40c60f1-9199-4f49-a439-a8d64668a968" x1="0%" y1="0%" x2="100%" y2="0%"><stop data-v-423bf9ae="" offset="0%" style="stop-color: rgb(2, 24, 2); stop-opacity: 1;"></stop><stop data-v-423bf9ae="" offset="100%" style="stop-color: rgb(96, 219, 204); stop-opacity: 1;"></stop></linearGradient></defs><g data-v-423bf9ae="" id="6423756b-521a-499c-9ed0-f3f51a1aac61" fill="url(#a40c60f1-9199-4f49-a439-a8d64668a968)" transform="matrix(4.622496310940746,0,0,4.622496310940746,-5.408321910302163,-14.976887853112999)"><path d="M6.85 5.07L6.85 3.82L1.17 3.82L1.17 13.15L2.65 13.15L2.65 9.07L6.13 9.07L6.13 7.90L2.65 7.90L2.65 5.07ZM7.88 13.15L9.29 13.15L9.29 3.24L7.88 3.24ZM16.32 6.53L16.13 7.45C15.62 6.78 14.85 6.36 13.82 6.36C12.10 6.36 10.73 7.69 10.73 9.84C10.73 12.00 12.10 13.31 13.82 13.31C14.83 13.31 15.60 12.89 16.11 12.22L16.32 13.15L17.49 13.15L17.49 6.53ZM14.16 12.12C12.96 12.12 12.18 11.14 12.18 9.84C12.18 8.55 12.96 7.55 14.16 7.55C15.40 7.55 16.20 8.55 16.20 9.84C16.20 11.14 15.40 12.12 14.16 12.12ZM22.84 6.36C21.89 6.36 21.16 6.72 20.65 7.32L20.65 3.24L19.24 3.24L19.24 13.15L20.39 13.15L20.56 12.25C21.07 12.91 21.85 13.31 22.84 13.31C24.56 13.31 25.93 12.00 25.93 9.84C25.93 7.69 24.56 6.36 22.84 6.36ZM22.50 12.12C21.26 12.12 20.46 11.14 20.46 9.84C20.46 8.55 21.26 7.55 22.50 7.55C23.70 7.55 24.49 8.55 24.49 9.84C24.49 11.14 23.70 12.12 22.50 12.12ZM37.26 13.15L38.86 13.15L35.17 3.82L33.67 3.82L29.98 13.15L31.59 13.15L32.48 10.75L36.37 10.73ZM32.91 9.57L34.43 5.45L35.93 9.57ZM43.20 6.36C42.20 6.36 41.45 6.77 40.92 7.42L40.80 6.53L39.56 6.53L39.56 16.22L40.98 16.22L40.98 12.32C41.49 12.94 42.23 13.31 43.20 13.31C44.92 13.31 46.29 12.00 46.29 9.84C46.29 7.69 44.92 6.36 43.20 6.36ZM42.86 12.12C41.62 12.12 40.82 11.14 40.82 9.84C40.82 8.55 41.62 7.55 42.86 7.55C44.06 7.55 44.84 8.55 44.84 9.84C44.84 11.14 44.06 12.12 42.86 12.12ZM51.30 6.36C50.31 6.36 49.55 6.77 49.03 7.42L48.91 6.53L47.67 6.53L47.67 16.22L49.09 16.22L49.09 12.32C49.60 12.94 50.34 13.31 51.30 13.31C53.02 13.31 54.40 12.00 54.40 9.84C54.40 7.69 53.02 6.36 51.30 6.36ZM50.97 12.12C49.73 12.12 48.93 11.14 48.93 9.84C48.93 8.55 49.73 7.55 50.97 7.55C52.16 7.55 52.95 8.55 52.95 9.84C52.95 11.14 52.16 12.12 50.97 12.12Z"></path></g><!----><!----></svg>